<?xml version="1.0" encoding="UTF-8"?>
<svg id="Capa_2" data-name="Capa 2" xmlns="http://www.w3.org/2000/svg" viewBox="0 0 839.36 730.73">
  <defs>
    <style>
      .cls-1 {
        fill: #fff;
      }
    </style>
  </defs>
  <g id="Capa_1-2" data-name="Capa 1">
    <path class="cls-1" d="M598.25,279.57c3.07.73,3.2-.47,4.85-2.12,36.53-36.64,67.86-86.06,104.43-123.57,19.28-16.51,50.21-8.28,52.8,18.6v391.99s79.04,164.6,79.04,164.6c0,0-89.95,3.88-108.24-1.4-23.68-6.83-33.03-21.28-45.25-40.75-35.74-56.94-64.74-127.85-101.98-182.02-1.36-1.98-2.77-3.81-4.67-5.29l-112.95,133.02c-20.82,26.13-48.36,31.94-74.04,7.93-39.88-37.29-75.78-96.49-114.98-137.02-2.08-2.15-3.5-4.66-7-3.97l-114.03,203c-8.99,9.51-19.29,19.66-32.06,23.94-18.37,6.16-124.16,3.75-124.16,3.75,0,0,71.55-119.6,90.11-163.79l.03-387.97c.39-26.99,28.21-42.91,51.09-26.94l109.99,127.98L408.51,8.85c7.53-11.67,24.55-11.82,32.27-.28,34.97,52.29,116.87,201.99,154.53,262.94,1.49,2.41,2.62,5.24,2.94,8.06ZM68.22,678.13h39c1.8,0,12.03-6.19,13.98-8.02L424.24,132.14l105.2,188.04c-.53,1.7-19.9,25.59-22.33,27.85-1.71,1.59-2.35,3.73-4.95,1.17l-77.92-135.06-129.98,235.06,128,151.95,6.52.7,247.44-291.71v95l44,75V190.13l-294.85,347.93-91.68-108.5c-4.74-11.04,15.3-27.52,16.56-39.42l76.9,85.99,144.88-173.28L425.24,44.14,68.22,678.13ZM174.22,310.13l33,35.97,22.74-40.55-99.73-115.42v290c4.71.96,3.21-.58,4.49-2.58,5-7.82,39.51-66.39,39.51-70.42v-97ZM782.22,678.13l-144.02-260c-5.6,6.3-30.69,31.68-29.18,37.99l113.6,202.61c3.06,6.87,15.15,19.4,22.6,19.4h37Z"/>
  </g>
</svg>